<svg width="73" height="72" viewBox="0 0 73 72" fill="none" xmlns="http://www.w3.org/2000/svg">
<rect x="0.5" width="72" height="72" rx="36" fill="white"/>
<g clip-path="url(#clip0_965_161)">
<g clip-path="url(#clip1_965_161)">
<path d="M36.4039 35.7042C39.0044 35.7042 41.0269 33.5695 41.0269 30.9497C41.0269 28.3299 38.908 26.2922 36.3076 26.2922C33.7071 26.2922 31.6846 28.4269 31.6846 30.9497C31.6846 33.5695 33.8035 35.7042 36.4039 35.7042ZM36.3076 28.2328C36.4039 28.2328 36.4039 28.2328 36.3076 28.2328C37.8486 28.2328 39.1007 29.4942 39.1007 31.0467C39.1007 32.5992 37.8486 33.7636 36.3076 33.7636C34.7666 33.7636 33.6108 32.5022 33.6108 31.0467C33.6108 29.4942 34.8629 28.2328 36.3076 28.2328Z" fill="#FFA62B"/>
<path d="M50.658 35.1218C48.8281 33.4723 46.4203 32.599 43.9161 32.696H43.1456C42.953 33.4723 42.6641 34.1515 42.2788 34.7337C42.8567 34.6366 43.3383 34.6366 43.9161 34.6366C45.7461 34.5396 47.576 35.1218 49.0207 36.1891V43.1753H50.947V35.4129L50.658 35.1218Z" fill="#FFA62B"/>
<path d="M41.7009 26.4859C42.1825 25.3215 43.5309 24.7394 44.7829 25.2245C45.9387 25.7097 46.5166 27.0681 46.035 28.3295C45.6498 29.2027 44.7829 29.7849 43.9161 29.7849C43.7235 29.7849 43.4346 29.7849 43.2419 29.6879C43.3382 30.173 43.3382 30.6582 43.3382 31.0463V31.6285C43.5309 31.6285 43.7235 31.7255 43.9161 31.7255C46.3239 31.7255 48.2502 29.7849 48.2502 27.4562C48.2502 25.0304 46.3239 23.0898 44.0124 23.0898C42.4714 23.0898 41.123 23.8661 40.3525 25.2245C40.8341 25.5156 41.3157 25.9037 41.7009 26.4859Z" fill="#FFA62B"/>
<path d="M30.7214 34.8308C30.3361 34.2487 30.0472 33.5694 29.8546 32.7932H29.0841C26.5799 32.6962 24.1721 33.5694 22.3422 35.1219L22.0532 35.413V43.1754H23.9795V36.1893C25.5205 35.1219 27.2541 34.5397 29.0841 34.6368C29.6619 34.6368 30.2398 34.7338 30.7214 34.8308Z" fill="#FFA62B"/>
<path d="M29.0837 31.6289C29.2763 31.6289 29.469 31.6289 29.6616 31.5319V30.9497C29.6616 30.4645 29.6616 29.9794 29.7579 29.5913C29.5653 29.6883 29.2763 29.6883 29.0837 29.6883C27.8316 29.6883 26.7722 28.621 26.7722 27.3596C26.7722 26.0982 27.8316 25.0308 29.0837 25.0308C30.0468 25.0308 30.9137 25.613 31.2989 26.4863C31.6842 26.0012 32.262 25.516 32.7436 25.1279C31.4915 23.0902 28.8911 22.411 26.8685 23.6724C24.8459 24.9338 24.1718 27.5536 25.4238 29.5913C26.1943 30.8527 27.5427 31.6289 29.0837 31.6289Z" fill="#FFA62B"/>
<path d="M44.3013 40.9437L44.1087 40.6526C42.1824 38.518 39.4857 37.2566 36.5963 37.3536C33.7069 37.2566 30.9138 38.518 28.9875 40.6526L28.7949 40.9437V48.318C28.7949 49.1913 29.4691 49.9675 30.4322 49.9675H42.7603C43.6271 49.9675 44.3976 49.1913 44.3976 48.318V40.9437H44.3013ZM42.375 48.0269H30.7212V41.6229C32.2622 40.0705 34.3811 39.2942 36.5963 39.2942C38.7152 39.1972 40.834 40.0705 42.375 41.6229V48.0269Z" fill="#FFA62B"/>
</g>
</g>
<defs>
<clipPath id="clip0_965_161">
<rect width="32" height="26.353" fill="white" transform="translate(20.5 23)"/>
</clipPath>
<clipPath id="clip1_965_161">
<rect width="29" height="27" fill="white" transform="translate(22 23)"/>
</clipPath>
</defs>
</svg>
